<svg xmlns="http://www.w3.org/2000/svg" xmlns:xlink="http://www.w3.org/1999/xlink" width="300" zoomAndPan="magnify" viewBox="0 0 224.87999 37.5" height="50" preserveAspectRatio="xMidYMid meet" version="1.0"><defs><g/></defs><g fill="#a75b24" fill-opacity="1"><g transform="translate(3.83541, 26.3617)"><g><path d="M 11.234375 -14.59375 C 11.523438 -14.726562 11.867188 -14.769531 12.265625 -14.71875 C 12.671875 -14.675781 13.015625 -14.585938 13.296875 -14.453125 C 13.585938 -14.316406 13.710938 -14.171875 13.671875 -14.015625 C 13.398438 -13.828125 13.109375 -13.410156 12.796875 -12.765625 C 12.492188 -12.117188 12.195312 -11.351562 11.90625 -10.46875 C 11.613281 -9.59375 11.335938 -8.6875 11.078125 -7.75 C 12.492188 -7.457031 13.734375 -7.613281 14.796875 -8.21875 C 15.867188 -8.820312 16.546875 -9.867188 16.828125 -11.359375 C 17.015625 -12.367188 16.914062 -13.207031 16.53125 -13.875 C 16.15625 -14.539062 15.609375 -15.039062 14.890625 -15.375 C 14.171875 -15.71875 13.394531 -15.894531 12.5625 -15.90625 C 11.570312 -15.945312 10.640625 -15.828125 9.765625 -15.546875 C 8.898438 -15.265625 8.171875 -14.875 7.578125 -14.375 C 6.984375 -13.875 6.59375 -13.28125 6.40625 -12.59375 C 6.226562 -11.90625 6.335938 -11.164062 6.734375 -10.375 C 6.765625 -10.1875 6.664062 -9.96875 6.4375 -9.71875 C 6.21875 -9.476562 5.941406 -9.285156 5.609375 -9.140625 C 5.285156 -8.992188 4.984375 -8.960938 4.703125 -9.046875 C 4.171875 -9.335938 3.75 -9.742188 3.4375 -10.265625 C 3.132812 -10.785156 2.984375 -11.347656 2.984375 -11.953125 C 2.984375 -12.960938 3.253906 -13.847656 3.796875 -14.609375 C 4.335938 -15.367188 5.066406 -16.003906 5.984375 -16.515625 C 6.898438 -17.035156 7.929688 -17.421875 9.078125 -17.671875 C 10.222656 -17.929688 11.398438 -18.054688 12.609375 -18.046875 C 13.671875 -18.023438 14.703125 -17.867188 15.703125 -17.578125 C 16.710938 -17.296875 17.59375 -16.867188 18.34375 -16.296875 C 19.09375 -15.722656 19.648438 -15.003906 20.015625 -14.140625 C 20.378906 -13.273438 20.457031 -12.269531 20.25 -11.125 C 20.03125 -9.789062 19.484375 -8.640625 18.609375 -7.671875 C 17.742188 -6.710938 16.625 -6.050781 15.25 -5.6875 C 13.875 -5.320312 12.300781 -5.367188 10.53125 -5.828125 C 10.21875 -4.660156 9.929688 -3.570312 9.671875 -2.5625 C 9.410156 -1.5625 9.1875 -0.828125 9 -0.359375 C 8.875 -0.203125 8.640625 -0.0820312 8.296875 0 C 7.953125 0.0703125 7.578125 0.0976562 7.171875 0.078125 C 6.773438 0.0546875 6.4375 -0.015625 6.15625 -0.140625 C 5.882812 -0.273438 5.753906 -0.472656 5.765625 -0.734375 C 5.972656 -1.234375 6.1875 -1.875 6.40625 -2.65625 C 6.625 -3.4375 6.851562 -4.296875 7.09375 -5.234375 C 7.34375 -6.179688 7.601562 -7.140625 7.875 -8.109375 C 8.15625 -9.078125 8.460938 -10 8.796875 -10.875 C 9.140625 -11.75 9.507812 -12.507812 9.90625 -13.15625 C 10.300781 -13.8125 10.742188 -14.289062 11.234375 -14.59375 Z M 11.234375 -14.59375 "/></g></g></g><g fill="#a75b24" fill-opacity="1"><g transform="translate(24.44881, 26.3617)"><g><path d="M 6.9375 -11.109375 C 8.113281 -11.109375 9.03125 -10.847656 9.6875 -10.328125 C 10.351562 -9.804688 10.785156 -9.125 10.984375 -8.28125 C 11.179688 -7.4375 11.171875 -6.519531 10.953125 -5.53125 C 10.742188 -4.550781 10.351562 -3.59375 9.78125 -2.65625 C 10.414062 -2.582031 11.078125 -2.757812 11.765625 -3.1875 C 12.453125 -3.613281 13.046875 -4.40625 13.546875 -5.5625 C 13.597656 -5.664062 13.71875 -5.6875 13.90625 -5.625 C 14.101562 -5.5625 14.273438 -5.460938 14.421875 -5.328125 C 14.566406 -5.203125 14.613281 -5.085938 14.5625 -4.984375 C 13.988281 -3.773438 13.363281 -2.90625 12.6875 -2.375 C 12.007812 -1.851562 11.320312 -1.539062 10.625 -1.4375 C 9.9375 -1.34375 9.28125 -1.347656 8.65625 -1.453125 C 7.40625 -0.304688 5.90625 0.265625 4.15625 0.265625 C 3.257812 0.265625 2.453125 0.0859375 1.734375 -0.265625 C 1.015625 -0.628906 0.5 -1.210938 0.1875 -2.015625 C -0.125 -2.816406 -0.132812 -3.90625 0.15625 -5.28125 C 0.414062 -6.507812 0.882812 -7.550781 1.5625 -8.40625 C 2.238281 -9.269531 3.039062 -9.9375 3.96875 -10.40625 C 4.90625 -10.875 5.894531 -11.109375 6.9375 -11.109375 Z M 6.5 -9 C 6.082031 -8.976562 5.6875 -8.796875 5.3125 -8.453125 C 4.945312 -8.109375 4.628906 -7.65625 4.359375 -7.09375 C 4.085938 -6.539062 3.875 -5.941406 3.71875 -5.296875 C 3.59375 -4.785156 3.503906 -4.257812 3.453125 -3.71875 C 3.398438 -3.175781 3.460938 -2.722656 3.640625 -2.359375 C 3.816406 -1.992188 4.164062 -1.8125 4.6875 -1.8125 C 5.195312 -1.8125 5.660156 -2.046875 6.078125 -2.515625 C 5.921875 -2.773438 5.875 -3.039062 5.9375 -3.3125 C 6 -3.582031 6.132812 -3.804688 6.34375 -3.984375 C 6.550781 -4.171875 6.785156 -4.25 7.046875 -4.21875 C 7.335938 -4.976562 7.539062 -5.726562 7.65625 -6.46875 C 7.769531 -7.21875 7.742188 -7.832031 7.578125 -8.3125 C 7.410156 -8.800781 7.050781 -9.03125 6.5 -9 Z M 6.5 -9 "/></g></g></g><g fill="#a75b24" fill-opacity="1"><g transform="translate(37.731846, 26.3617)"><g><path d="M 0.859375 -4.21875 C 0.804688 -4.09375 0.679688 -4.050781 0.484375 -4.09375 C 0.285156 -4.132812 0.117188 -4.222656 -0.015625 -4.359375 C -0.160156 -4.503906 -0.195312 -4.640625 -0.125 -4.765625 C 0.195312 -5.398438 0.484375 -6 0.734375 -6.5625 C 0.992188 -7.125 1.234375 -7.707031 1.453125 -8.3125 C 1.679688 -8.925781 1.898438 -9.601562 2.109375 -10.34375 C 1.722656 -10.9375 1.523438 -11.46875 1.515625 -11.9375 C 1.515625 -12.40625 1.632812 -12.789062 1.875 -13.09375 C 2.113281 -13.394531 2.398438 -13.609375 2.734375 -13.734375 C 3.078125 -13.867188 3.40625 -13.882812 3.71875 -13.78125 C 4.03125 -13.675781 4.265625 -13.445312 4.421875 -13.09375 C 4.578125 -12.738281 4.566406 -12.238281 4.390625 -11.59375 C 4.785156 -11.21875 5.222656 -10.832031 5.703125 -10.4375 C 6.179688 -10.050781 6.601562 -9.648438 6.96875 -9.234375 C 7.332031 -8.828125 7.5625 -8.40625 7.65625 -7.96875 C 7.75 -7.539062 7.613281 -7.09375 7.25 -6.625 C 6.800781 -6.039062 6.394531 -5.441406 6.03125 -4.828125 C 5.664062 -4.210938 5.445312 -3.632812 5.375 -3.09375 C 5.320312 -2.75 5.367188 -2.453125 5.515625 -2.203125 C 5.671875 -1.960938 5.945312 -1.851562 6.34375 -1.875 C 6.726562 -1.875 7.171875 -1.984375 7.671875 -2.203125 C 8.171875 -2.429688 8.691406 -2.8125 9.234375 -3.34375 C 9.785156 -3.882812 10.285156 -4.625 10.734375 -5.5625 C 10.785156 -5.664062 10.898438 -5.679688 11.078125 -5.609375 C 11.265625 -5.546875 11.429688 -5.445312 11.578125 -5.3125 C 11.722656 -5.1875 11.769531 -5.078125 11.71875 -4.984375 C 11.289062 -4.054688 10.769531 -3.195312 10.15625 -2.40625 C 9.539062 -1.613281 8.816406 -0.976562 7.984375 -0.5 C 7.148438 -0.03125 6.1875 0.203125 5.09375 0.203125 C 3.988281 0.222656 3.171875 -0.0234375 2.640625 -0.546875 C 2.109375 -1.066406 1.851562 -1.742188 1.875 -2.578125 C 1.875 -3.390625 2.101562 -4.210938 2.5625 -5.046875 C 3.019531 -5.890625 3.492188 -6.6875 3.984375 -7.4375 C 4.171875 -7.726562 4.21875 -8.007812 4.125 -8.28125 C 4.039062 -8.550781 3.890625 -8.800781 3.671875 -9.03125 C 3.460938 -9.269531 3.269531 -9.472656 3.09375 -9.640625 C 2.863281 -8.796875 2.554688 -7.910156 2.171875 -6.984375 C 1.796875 -6.066406 1.359375 -5.144531 0.859375 -4.21875 Z M 0.859375 -4.21875 "/></g></g></g><g fill="#a75b24" fill-opacity="1"><g transform="translate(48.18152, 26.3617)"><g><path d="M 3.6875 0.234375 C 2.738281 0.234375 2 0.0507812 1.46875 -0.3125 C 0.9375 -0.675781 0.566406 -1.171875 0.359375 -1.796875 C 0.148438 -2.429688 0.0664062 -3.164062 0.109375 -4 C 0.160156 -4.832031 0.28125 -5.722656 0.46875 -6.671875 C 0.65625 -7.617188 0.875 -8.578125 1.125 -9.546875 L 0.390625 -9.546875 C 0.210938 -9.648438 0.125 -9.847656 0.125 -10.140625 C 0.125 -10.429688 0.179688 -10.71875 0.296875 -11 C 0.410156 -11.289062 0.546875 -11.453125 0.703125 -11.484375 L 1.65625 -11.484375 C 1.882812 -12.210938 2.117188 -12.945312 2.359375 -13.6875 C 2.609375 -14.4375 2.835938 -15.132812 3.046875 -15.78125 C 3.265625 -16.4375 3.445312 -16.96875 3.59375 -17.375 C 3.695312 -17.507812 3.921875 -17.597656 4.265625 -17.640625 C 4.609375 -17.679688 4.976562 -17.675781 5.375 -17.625 C 5.78125 -17.570312 6.132812 -17.476562 6.4375 -17.34375 C 6.738281 -17.207031 6.90625 -17.035156 6.9375 -16.828125 C 6.664062 -15.992188 6.390625 -15.140625 6.109375 -14.265625 C 5.828125 -13.390625 5.539062 -12.460938 5.25 -11.484375 L 7.203125 -11.484375 C 7.390625 -11.347656 7.484375 -11.132812 7.484375 -10.84375 C 7.484375 -10.5625 7.4375 -10.289062 7.34375 -10.03125 C 7.25 -9.769531 7.132812 -9.609375 7 -9.546875 L 4.734375 -9.546875 C 4.546875 -8.878906 4.359375 -8.226562 4.171875 -7.59375 C 3.992188 -6.96875 3.84375 -6.378906 3.71875 -5.828125 C 3.4375 -4.679688 3.316406 -3.726562 3.359375 -2.96875 C 3.410156 -2.21875 3.726562 -1.828125 4.3125 -1.796875 C 4.914062 -1.773438 5.617188 -2.054688 6.421875 -2.640625 C 7.234375 -3.234375 7.960938 -4.207031 8.609375 -5.5625 C 8.660156 -5.6875 8.773438 -5.710938 8.953125 -5.640625 C 9.140625 -5.566406 9.304688 -5.460938 9.453125 -5.328125 C 9.597656 -5.191406 9.644531 -5.070312 9.59375 -4.96875 C 8.882812 -3.382812 8.050781 -2.125 7.09375 -1.1875 C 6.144531 -0.257812 5.007812 0.210938 3.6875 0.234375 Z M 3.6875 0.234375 "/></g></g></g><g fill="#a75b24" fill-opacity="1"><g transform="translate(56.499665, 26.3617)"><g><path d="M 4.234375 -15.859375 C 4.773438 -16.617188 5.378906 -17.164062 6.046875 -17.5 C 6.710938 -17.84375 7.363281 -18 8 -17.96875 C 8.644531 -17.945312 9.207031 -17.742188 9.6875 -17.359375 C 10.175781 -16.984375 10.523438 -16.457031 10.734375 -15.78125 C 10.941406 -15.101562 10.9375 -14.296875 10.71875 -13.359375 C 10.488281 -12.253906 10.007812 -11.21875 9.28125 -10.25 C 8.550781 -9.289062 7.695312 -8.453125 6.71875 -7.734375 C 5.738281 -7.015625 4.726562 -6.457031 3.6875 -6.0625 C 3.582031 -5.707031 3.46875 -5.300781 3.34375 -4.84375 C 3.226562 -4.382812 3.117188 -3.945312 3.015625 -3.53125 C 3.304688 -3.425781 3.671875 -3.3125 4.109375 -3.1875 C 4.554688 -3.070312 5.046875 -2.992188 5.578125 -2.953125 C 6.109375 -2.910156 6.640625 -2.953125 7.171875 -3.078125 C 7.710938 -3.210938 8.21875 -3.472656 8.6875 -3.859375 C 9.164062 -4.253906 9.570312 -4.820312 9.90625 -5.5625 C 9.957031 -5.664062 10.070312 -5.6875 10.25 -5.625 C 10.4375 -5.5625 10.601562 -5.460938 10.75 -5.328125 C 10.894531 -5.203125 10.953125 -5.097656 10.921875 -5.015625 C 10.429688 -3.910156 9.859375 -3.113281 9.203125 -2.625 C 8.546875 -2.132812 7.859375 -1.84375 7.140625 -1.75 C 6.421875 -1.65625 5.722656 -1.632812 5.046875 -1.6875 C 5.628906 -0.945312 6.015625 -0.128906 6.203125 0.765625 C 6.398438 1.671875 6.421875 2.5625 6.265625 3.4375 C 6.109375 4.320312 5.796875 5.097656 5.328125 5.765625 C 4.898438 6.359375 4.363281 6.828125 3.71875 7.171875 C 3.070312 7.523438 2.316406 7.691406 1.453125 7.671875 C 0.191406 7.640625 -0.644531 7.253906 -1.0625 6.515625 C -1.476562 5.773438 -1.632812 4.75 -1.53125 3.4375 C -1.476562 2.457031 -1.289062 1.171875 -0.96875 -0.421875 C -0.65625 -2.023438 -0.253906 -3.75 0.234375 -5.59375 C 0.617188 -6.976562 1.019531 -8.316406 1.4375 -9.609375 C 1.863281 -10.910156 2.316406 -12.101562 2.796875 -13.1875 C 3.273438 -14.269531 3.753906 -15.160156 4.234375 -15.859375 Z M 6.609375 -14.59375 C 6.378906 -14.15625 6.117188 -13.582031 5.828125 -12.875 C 5.546875 -12.175781 5.257812 -11.421875 4.96875 -10.609375 C 4.6875 -9.796875 4.425781 -8.976562 4.1875 -8.15625 C 4.8125 -8.570312 5.390625 -9.101562 5.921875 -9.75 C 6.460938 -10.40625 6.925781 -11.113281 7.3125 -11.875 C 7.707031 -12.644531 7.984375 -13.382812 8.140625 -14.09375 C 8.273438 -14.664062 8.273438 -15.085938 8.140625 -15.359375 C 8.003906 -15.640625 7.789062 -15.726562 7.5 -15.625 C 7.21875 -15.519531 6.921875 -15.175781 6.609375 -14.59375 Z M 2.46875 -1.484375 C 2.34375 -0.984375 2.203125 -0.382812 2.046875 0.3125 C 1.890625 1.007812 1.753906 1.695312 1.640625 2.375 C 1.535156 3.0625 1.46875 3.664062 1.4375 4.1875 C 1.414062 4.789062 1.507812 5.179688 1.71875 5.359375 C 1.9375 5.546875 2.191406 5.523438 2.484375 5.296875 C 2.785156 5.078125 3.03125 4.691406 3.21875 4.140625 C 3.425781 3.578125 3.550781 2.945312 3.59375 2.25 C 3.644531 1.550781 3.585938 0.863281 3.421875 0.1875 C 3.253906 -0.476562 2.9375 -1.035156 2.46875 -1.484375 Z M 2.46875 -1.484375 "/></g></g></g><g fill="#a75b24" fill-opacity="1"><g transform="translate(66.143509, 26.3617)"><g><path d="M 6.9375 -11.109375 C 8.113281 -11.109375 9.03125 -10.847656 9.6875 -10.328125 C 10.351562 -9.804688 10.785156 -9.125 10.984375 -8.28125 C 11.179688 -7.4375 11.171875 -6.519531 10.953125 -5.53125 C 10.742188 -4.550781 10.351562 -3.59375 9.78125 -2.65625 C 10.414062 -2.582031 11.078125 -2.757812 11.765625 -3.1875 C 12.453125 -3.613281 13.046875 -4.40625 13.546875 -5.5625 C 13.597656 -5.664062 13.71875 -5.6875 13.90625 -5.625 C 14.101562 -5.5625 14.273438 -5.460938 14.421875 -5.328125 C 14.566406 -5.203125 14.613281 -5.085938 14.5625 -4.984375 C 13.988281 -3.773438 13.363281 -2.90625 12.6875 -2.375 C 12.007812 -1.851562 11.320312 -1.539062 10.625 -1.4375 C 9.9375 -1.34375 9.28125 -1.347656 8.65625 -1.453125 C 7.40625 -0.304688 5.90625 0.265625 4.15625 0.265625 C 3.257812 0.265625 2.453125 0.0859375 1.734375 -0.265625 C 1.015625 -0.628906 0.5 -1.210938 0.1875 -2.015625 C -0.125 -2.816406 -0.132812 -3.90625 0.15625 -5.28125 C 0.414062 -6.507812 0.882812 -7.550781 1.5625 -8.40625 C 2.238281 -9.269531 3.039062 -9.9375 3.96875 -10.40625 C 4.90625 -10.875 5.894531 -11.109375 6.9375 -11.109375 Z M 6.5 -9 C 6.082031 -8.976562 5.6875 -8.796875 5.3125 -8.453125 C 4.945312 -8.109375 4.628906 -7.65625 4.359375 -7.09375 C 4.085938 -6.539062 3.875 -5.941406 3.71875 -5.296875 C 3.59375 -4.785156 3.503906 -4.257812 3.453125 -3.71875 C 3.398438 -3.175781 3.460938 -2.722656 3.640625 -2.359375 C 3.816406 -1.992188 4.164062 -1.8125 4.6875 -1.8125 C 5.195312 -1.8125 5.660156 -2.046875 6.078125 -2.515625 C 5.921875 -2.773438 5.875 -3.039062 5.9375 -3.3125 C 6 -3.582031 6.132812 -3.804688 6.34375 -3.984375 C 6.550781 -4.171875 6.785156 -4.25 7.046875 -4.21875 C 7.335938 -4.976562 7.539062 -5.726562 7.65625 -6.46875 C 7.769531 -7.21875 7.742188 -7.832031 7.578125 -8.3125 C 7.410156 -8.800781 7.050781 -9.03125 6.5 -9 Z M 6.5 -9 "/></g></g></g><g fill="#a75b24" fill-opacity="1"><g transform="translate(79.426545, 26.3617)"><g><path d="M 5.4375 -17.375 C 6.113281 -17.78125 6.785156 -17.972656 7.453125 -17.953125 C 8.128906 -17.941406 8.734375 -17.738281 9.265625 -17.34375 C 9.796875 -16.957031 10.164062 -16.40625 10.375 -15.6875 C 10.582031 -14.96875 10.554688 -14.097656 10.296875 -13.078125 C 9.898438 -11.515625 9.117188 -10.125 7.953125 -8.90625 C 6.796875 -7.695312 5.304688 -6.78125 3.484375 -6.15625 C 3.203125 -4.894531 3.164062 -3.863281 3.375 -3.0625 C 3.582031 -2.269531 4.113281 -1.847656 4.96875 -1.796875 C 5.757812 -1.742188 6.582031 -2.054688 7.4375 -2.734375 C 8.300781 -3.410156 9.035156 -4.351562 9.640625 -5.5625 C 9.691406 -5.664062 9.804688 -5.679688 9.984375 -5.609375 C 10.160156 -5.546875 10.328125 -5.445312 10.484375 -5.3125 C 10.640625 -5.1875 10.691406 -5.078125 10.640625 -4.984375 C 10.128906 -4.003906 9.566406 -3.09375 8.953125 -2.25 C 8.335938 -1.40625 7.601562 -0.753906 6.75 -0.296875 C 5.90625 0.160156 4.867188 0.328125 3.640625 0.203125 C 2.410156 0.0664062 1.53125 -0.398438 1 -1.203125 C 0.46875 -2.015625 0.210938 -3.066406 0.234375 -4.359375 C 0.253906 -5.660156 0.4375 -7.117188 0.78125 -8.734375 C 1.0625 -9.984375 1.425781 -11.179688 1.875 -12.328125 C 2.320312 -13.472656 2.84375 -14.484375 3.4375 -15.359375 C 4.039062 -16.242188 4.707031 -16.914062 5.4375 -17.375 Z M 7.359375 -15.625 C 7.046875 -15.644531 6.722656 -15.367188 6.390625 -14.796875 C 6.066406 -14.222656 5.726562 -13.503906 5.375 -12.640625 C 5.164062 -12.046875 4.921875 -11.34375 4.640625 -10.53125 C 4.359375 -9.71875 4.113281 -8.9375 3.90625 -8.1875 C 4.5625 -8.582031 5.175781 -9.160156 5.75 -9.921875 C 6.320312 -10.691406 6.765625 -11.445312 7.078125 -12.1875 C 7.335938 -12.800781 7.519531 -13.363281 7.625 -13.875 C 7.738281 -14.394531 7.78125 -14.816406 7.75 -15.140625 C 7.71875 -15.460938 7.585938 -15.625 7.359375 -15.625 Z M 7.359375 -15.625 "/></g></g></g><g fill="#a75b24" fill-opacity="1"><g transform="translate(88.810448, 26.3617)"><g><path d="M 4.078125 -12.5625 C 3.578125 -12.5625 3.175781 -12.742188 2.875 -13.109375 C 2.570312 -13.472656 2.460938 -13.894531 2.546875 -14.375 C 2.628906 -14.914062 2.867188 -15.359375 3.265625 -15.703125 C 3.671875 -16.046875 4.160156 -16.21875 4.734375 -16.21875 C 5.285156 -16.207031 5.707031 -16.023438 6 -15.671875 C 6.300781 -15.328125 6.40625 -14.894531 6.3125 -14.375 C 6.25 -13.851562 6.015625 -13.421875 5.609375 -13.078125 C 5.210938 -12.734375 4.703125 -12.5625 4.078125 -12.5625 Z M 2.109375 0.203125 C 0.890625 0.242188 0.117188 -0.046875 -0.203125 -0.671875 C -0.535156 -1.296875 -0.585938 -2.113281 -0.359375 -3.125 C -0.0664062 -4.351562 0.25 -5.585938 0.59375 -6.828125 C 0.945312 -8.066406 1.328125 -9.394531 1.734375 -10.8125 C 1.878906 -10.957031 2.109375 -11.050781 2.421875 -11.09375 C 2.742188 -11.132812 3.09375 -11.132812 3.46875 -11.09375 C 3.84375 -11.050781 4.179688 -10.972656 4.484375 -10.859375 C 4.785156 -10.742188 4.972656 -10.59375 5.046875 -10.40625 C 4.554688 -8.71875 4.148438 -7.34375 3.828125 -6.28125 C 3.515625 -5.21875 3.269531 -4.273438 3.09375 -3.453125 C 3.007812 -2.953125 2.988281 -2.550781 3.03125 -2.25 C 3.070312 -1.957031 3.207031 -1.820312 3.4375 -1.84375 C 3.800781 -1.84375 4.203125 -2.007812 4.640625 -2.34375 C 5.078125 -2.6875 5.507812 -3.140625 5.9375 -3.703125 C 6.363281 -4.265625 6.722656 -4.875 7.015625 -5.53125 C 7.066406 -5.65625 7.179688 -5.679688 7.359375 -5.609375 C 7.546875 -5.546875 7.71875 -5.445312 7.875 -5.3125 C 8.03125 -5.1875 8.082031 -5.070312 8.03125 -4.96875 C 7.65625 -4.207031 7.179688 -3.429688 6.609375 -2.640625 C 6.046875 -1.847656 5.390625 -1.179688 4.640625 -0.640625 C 3.890625 -0.109375 3.046875 0.171875 2.109375 0.203125 Z M 2.109375 0.203125 "/></g></g></g><g fill="#a75b24" fill-opacity="1"><g transform="translate(95.568938, 26.3617)"><g><path d="M 6.9375 -11.109375 C 8.113281 -11.109375 9.03125 -10.847656 9.6875 -10.328125 C 10.351562 -9.804688 10.785156 -9.125 10.984375 -8.28125 C 11.179688 -7.4375 11.171875 -6.519531 10.953125 -5.53125 C 10.742188 -4.550781 10.351562 -3.59375 9.78125 -2.65625 C 10.414062 -2.582031 11.078125 -2.757812 11.765625 -3.1875 C 12.453125 -3.613281 13.046875 -4.40625 13.546875 -5.5625 C 13.597656 -5.664062 13.71875 -5.6875 13.90625 -5.625 C 14.101562 -5.5625 14.273438 -5.460938 14.421875 -5.328125 C 14.566406 -5.203125 14.613281 -5.085938 14.5625 -4.984375 C 13.988281 -3.773438 13.363281 -2.90625 12.6875 -2.375 C 12.007812 -1.851562 11.320312 -1.539062 10.625 -1.4375 C 9.9375 -1.34375 9.28125 -1.347656 8.65625 -1.453125 C 7.40625 -0.304688 5.90625 0.265625 4.15625 0.265625 C 3.257812 0.265625 2.453125 0.0859375 1.734375 -0.265625 C 1.015625 -0.628906 0.5 -1.210938 0.1875 -2.015625 C -0.125 -2.816406 -0.132812 -3.90625 0.15625 -5.28125 C 0.414062 -6.507812 0.882812 -7.550781 1.5625 -8.40625 C 2.238281 -9.269531 3.039062 -9.9375 3.96875 -10.40625 C 4.90625 -10.875 5.894531 -11.109375 6.9375 -11.109375 Z M 6.5 -9 C 6.082031 -8.976562 5.6875 -8.796875 5.3125 -8.453125 C 4.945312 -8.109375 4.628906 -7.65625 4.359375 -7.09375 C 4.085938 -6.539062 3.875 -5.941406 3.71875 -5.296875 C 3.59375 -4.785156 3.503906 -4.257812 3.453125 -3.71875 C 3.398438 -3.175781 3.460938 -2.722656 3.640625 -2.359375 C 3.816406 -1.992188 4.164062 -1.8125 4.6875 -1.8125 C 5.195312 -1.8125 5.660156 -2.046875 6.078125 -2.515625 C 5.921875 -2.773438 5.875 -3.039062 5.9375 -3.3125 C 6 -3.582031 6.132812 -3.804688 6.34375 -3.984375 C 6.550781 -4.171875 6.785156 -4.25 7.046875 -4.21875 C 7.335938 -4.976562 7.539062 -5.726562 7.65625 -6.46875 C 7.769531 -7.21875 7.742188 -7.832031 7.578125 -8.3125 C 7.410156 -8.800781 7.050781 -9.03125 6.5 -9 Z M 6.5 -9 "/></g></g></g><g fill="#a75b24" fill-opacity="1"><g transform="translate(108.851974, 26.3617)"><g/></g></g><g fill="#a75b24" fill-opacity="1"><g transform="translate(114.908619, 26.3617)"><g><path d="M 5.984375 -17.546875 C 6.921875 -17.878906 7.800781 -18.046875 8.625 -18.046875 C 9.445312 -18.046875 10.238281 -17.945312 11 -17.75 C 11.757812 -17.5625 12.503906 -17.347656 13.234375 -17.109375 C 13.960938 -16.867188 14.695312 -16.664062 15.4375 -16.5 C 16.1875 -16.332031 16.960938 -16.273438 17.765625 -16.328125 C 18.578125 -16.398438 19.144531 -16.617188 19.46875 -16.984375 C 19.800781 -17.359375 19.953125 -17.894531 19.921875 -18.59375 C 20.085938 -18.832031 20.378906 -18.972656 20.796875 -19.015625 C 21.210938 -19.054688 21.535156 -18.984375 21.765625 -18.796875 C 22.085938 -18.347656 22.242188 -17.84375 22.234375 -17.28125 C 22.234375 -16.71875 22.125 -16.195312 21.90625 -15.71875 C 21.6875 -15.238281 21.421875 -14.878906 21.109375 -14.640625 C 20.273438 -13.992188 19.378906 -13.660156 18.421875 -13.640625 C 17.472656 -13.628906 16.488281 -13.6875 15.46875 -13.8125 C 15.226562 -12.976562 14.957031 -12.046875 14.65625 -11.015625 C 14.363281 -9.984375 13.992188 -8.722656 13.546875 -7.234375 C 13.179688 -6.097656 12.820312 -5.070312 12.46875 -4.15625 C 12.125 -3.238281 11.71875 -2.453125 11.25 -1.796875 C 10.789062 -1.148438 10.203125 -0.648438 9.484375 -0.296875 C 8.773438 0.0546875 7.875 0.234375 6.78125 0.234375 C 5.632812 0.234375 4.726562 0.0078125 4.0625 -0.4375 C 3.394531 -0.894531 2.941406 -1.457031 2.703125 -2.125 C 2.472656 -2.789062 2.429688 -3.441406 2.578125 -4.078125 C 2.691406 -4.628906 2.925781 -5.117188 3.28125 -5.546875 C 3.644531 -5.972656 4.113281 -6.289062 4.6875 -6.5 C 4.976562 -6.550781 5.273438 -6.503906 5.578125 -6.359375 C 5.878906 -6.210938 6.125 -6.019531 6.3125 -5.78125 C 6.507812 -5.550781 6.582031 -5.320312 6.53125 -5.09375 C 6.125 -4.625 5.890625 -4.132812 5.828125 -3.625 C 5.773438 -3.113281 5.863281 -2.679688 6.09375 -2.328125 C 6.332031 -1.972656 6.6875 -1.800781 7.15625 -1.8125 C 7.582031 -1.832031 7.960938 -2.082031 8.296875 -2.5625 C 8.640625 -3.050781 8.945312 -3.703125 9.21875 -4.515625 C 9.5 -5.335938 9.78125 -6.234375 10.0625 -7.203125 C 10.53125 -8.828125 10.929688 -10.257812 11.265625 -11.5 C 11.609375 -12.738281 11.941406 -13.851562 12.265625 -14.84375 C 11.398438 -15.175781 10.566406 -15.4375 9.765625 -15.625 C 8.972656 -15.8125 8.300781 -15.769531 7.75 -15.5 C 7.257812 -15.289062 6.941406 -15.007812 6.796875 -14.65625 C 6.648438 -14.300781 6.632812 -13.96875 6.75 -13.65625 C 6.875 -13.351562 7.117188 -13.160156 7.484375 -13.078125 C 7.847656 -13.003906 8.300781 -13.144531 8.84375 -13.5 C 9.132812 -13.53125 9.378906 -13.394531 9.578125 -13.09375 C 9.773438 -12.789062 9.867188 -12.5 9.859375 -12.21875 C 9.390625 -11.664062 8.859375 -11.269531 8.265625 -11.03125 C 7.679688 -10.800781 7.09375 -10.710938 6.5 -10.765625 C 5.90625 -10.816406 5.363281 -10.992188 4.875 -11.296875 C 4.382812 -11.597656 4 -12.007812 3.71875 -12.53125 C 3.425781 -13.082031 3.304688 -13.691406 3.359375 -14.359375 C 3.410156 -15.023438 3.648438 -15.65625 4.078125 -16.25 C 4.515625 -16.84375 5.148438 -17.273438 5.984375 -17.546875 Z M 5.984375 -17.546875 "/></g></g></g><g fill="#a75b24" fill-opacity="1"><g transform="translate(133.520472, 26.3617)"><g><path d="M 6.921875 -11.03125 C 7.953125 -11.007812 8.75 -10.765625 9.3125 -10.296875 C 9.882812 -9.828125 10.222656 -9.253906 10.328125 -8.578125 C 10.441406 -7.898438 10.328125 -7.234375 9.984375 -6.578125 C 9.515625 -5.617188 8.710938 -4.929688 7.578125 -4.515625 C 6.441406 -4.109375 5.128906 -4.050781 3.640625 -4.34375 C 3.609375 -2.757812 4.546875 -1.914062 6.453125 -1.8125 C 7.003906 -1.78125 7.625 -1.863281 8.3125 -2.0625 C 9.007812 -2.257812 9.695312 -2.632812 10.375 -3.1875 C 11.050781 -3.75 11.628906 -4.539062 12.109375 -5.5625 C 12.160156 -5.6875 12.273438 -5.710938 12.453125 -5.640625 C 12.640625 -5.566406 12.8125 -5.460938 12.96875 -5.328125 C 13.125 -5.203125 13.175781 -5.085938 13.125 -4.984375 C 12.4375 -3.566406 11.671875 -2.476562 10.828125 -1.71875 C 9.984375 -0.957031 9.101562 -0.429688 8.1875 -0.140625 C 7.269531 0.140625 6.351562 0.273438 5.4375 0.265625 C 4.050781 0.222656 2.945312 -0.0625 2.125 -0.59375 C 1.300781 -1.132812 0.734375 -1.820312 0.421875 -2.65625 C 0.117188 -3.5 0.046875 -4.398438 0.203125 -5.359375 C 0.398438 -6.515625 0.8125 -7.523438 1.4375 -8.390625 C 2.070312 -9.265625 2.863281 -9.929688 3.8125 -10.390625 C 4.769531 -10.847656 5.804688 -11.0625 6.921875 -11.03125 Z M 6.578125 -8.921875 C 6.210938 -8.953125 5.84375 -8.832031 5.46875 -8.5625 C 5.09375 -8.289062 4.757812 -7.910156 4.46875 -7.421875 C 4.175781 -6.941406 3.953125 -6.398438 3.796875 -5.796875 C 4.660156 -5.710938 5.375 -5.84375 5.9375 -6.1875 C 6.5 -6.53125 6.878906 -6.957031 7.078125 -7.46875 C 7.210938 -7.8125 7.253906 -8.132812 7.203125 -8.4375 C 7.148438 -8.738281 6.941406 -8.898438 6.578125 -8.921875 Z M 6.578125 -8.921875 "/></g></g></g><g fill="#a75b24" fill-opacity="1"><g transform="translate(145.373834, 26.3617)"><g><path d="M 14.6875 0.234375 C 13.53125 0.265625 12.769531 -0.00390625 12.40625 -0.578125 C 12.039062 -1.148438 11.953125 -1.910156 12.140625 -2.859375 C 12.210938 -3.171875 12.3125 -3.59375 12.4375 -4.125 C 12.570312 -4.664062 12.710938 -5.222656 12.859375 -5.796875 C 13.003906 -6.367188 13.128906 -6.863281 13.234375 -7.28125 C 13.316406 -7.625 13.34375 -7.945312 13.3125 -8.25 C 13.28125 -8.550781 13.070312 -8.695312 12.6875 -8.6875 C 12.300781 -8.664062 11.863281 -8.429688 11.375 -7.984375 C 10.894531 -7.546875 10.507812 -7.078125 10.21875 -6.578125 C 10.0625 -6.003906 9.890625 -5.335938 9.703125 -4.578125 C 9.523438 -3.816406 9.34375 -3.050781 9.15625 -2.28125 C 8.976562 -1.519531 8.820312 -0.851562 8.6875 -0.28125 C 8.59375 -0.125 8.378906 -0.0078125 8.046875 0.0625 C 7.710938 0.144531 7.335938 0.1875 6.921875 0.1875 C 6.503906 0.1875 6.132812 0.140625 5.8125 0.046875 C 5.488281 -0.0351562 5.300781 -0.179688 5.25 -0.390625 C 5.507812 -1.535156 5.773438 -2.675781 6.046875 -3.8125 C 6.328125 -4.945312 6.632812 -6.15625 6.96875 -7.4375 C 7.039062 -7.726562 7.050781 -8.003906 7 -8.265625 C 6.957031 -8.523438 6.773438 -8.644531 6.453125 -8.625 C 6.097656 -8.613281 5.6875 -8.40625 5.21875 -8 C 4.757812 -7.601562 4.328125 -7.117188 3.921875 -6.546875 C 3.609375 -5.453125 3.328125 -4.40625 3.078125 -3.40625 C 2.828125 -2.414062 2.582031 -1.375 2.34375 -0.28125 C 2.269531 -0.125 2.050781 -0.0078125 1.6875 0.0625 C 1.320312 0.144531 0.921875 0.179688 0.484375 0.171875 C 0.0546875 0.160156 -0.316406 0.0976562 -0.640625 -0.015625 C -0.960938 -0.128906 -1.125 -0.304688 -1.125 -0.546875 C -0.664062 -2.265625 -0.210938 -3.945312 0.234375 -5.59375 C 0.679688 -7.238281 1.175781 -8.976562 1.71875 -10.8125 C 1.851562 -10.957031 2.082031 -11.054688 2.40625 -11.109375 C 2.726562 -11.160156 3.070312 -11.160156 3.4375 -11.109375 C 3.800781 -11.066406 4.125 -10.984375 4.40625 -10.859375 C 4.695312 -10.742188 4.875 -10.582031 4.9375 -10.375 C 4.851562 -10.113281 4.765625 -9.828125 4.671875 -9.515625 C 4.585938 -9.203125 4.503906 -8.925781 4.421875 -8.6875 C 4.742188 -9.050781 5.128906 -9.414062 5.578125 -9.78125 C 6.035156 -10.15625 6.523438 -10.46875 7.046875 -10.71875 C 7.566406 -10.976562 8.066406 -11.109375 8.546875 -11.109375 C 9.222656 -11.109375 9.734375 -10.898438 10.078125 -10.484375 C 10.429688 -10.078125 10.566406 -9.519531 10.484375 -8.8125 C 10.984375 -9.382812 11.59375 -9.910156 12.3125 -10.390625 C 13.03125 -10.867188 13.796875 -11.109375 14.609375 -11.109375 C 15.679688 -11.109375 16.378906 -10.796875 16.703125 -10.171875 C 17.023438 -9.546875 17.054688 -8.710938 16.796875 -7.671875 C 16.710938 -7.285156 16.59375 -6.84375 16.4375 -6.34375 C 16.28125 -5.84375 16.125 -5.328125 15.96875 -4.796875 C 15.8125 -4.265625 15.691406 -3.773438 15.609375 -3.328125 C 15.535156 -2.878906 15.523438 -2.519531 15.578125 -2.25 C 15.628906 -1.976562 15.789062 -1.84375 16.0625 -1.84375 C 16.34375 -1.84375 16.675781 -2.003906 17.0625 -2.328125 C 17.457031 -2.648438 17.863281 -3.09375 18.28125 -3.65625 C 18.695312 -4.21875 19.0625 -4.851562 19.375 -5.5625 C 19.425781 -5.6875 19.539062 -5.710938 19.71875 -5.640625 C 19.90625 -5.566406 20.070312 -5.460938 20.21875 -5.328125 C 20.363281 -5.203125 20.410156 -5.085938 20.359375 -4.984375 C 20.078125 -4.453125 19.75 -3.882812 19.375 -3.28125 C 19.007812 -2.6875 18.59375 -2.128906 18.125 -1.609375 C 17.65625 -1.085938 17.132812 -0.65625 16.5625 -0.3125 C 15.988281 0.0195312 15.363281 0.203125 14.6875 0.234375 Z M 14.6875 0.234375 "/></g></g></g><g fill="#a75b24" fill-opacity="1"><g transform="translate(164.479571, 26.3617)"><g><path d="M 8.734375 -11.03125 C 9.484375 -10.988281 10.054688 -10.757812 10.453125 -10.34375 C 10.847656 -9.925781 11.101562 -9.390625 11.21875 -8.734375 C 11.34375 -8.078125 11.359375 -7.378906 11.265625 -6.640625 C 11.171875 -5.898438 10.988281 -5.175781 10.71875 -4.46875 C 10.457031 -3.757812 10.144531 -3.15625 9.78125 -2.65625 C 10.625 -2.582031 11.367188 -2.796875 12.015625 -3.296875 C 12.671875 -3.804688 13.21875 -4.5625 13.65625 -5.5625 C 13.707031 -5.664062 13.820312 -5.6875 14 -5.625 C 14.1875 -5.5625 14.351562 -5.460938 14.5 -5.328125 C 14.65625 -5.203125 14.707031 -5.085938 14.65625 -4.984375 C 14.144531 -3.859375 13.550781 -3.019531 12.875 -2.46875 C 12.207031 -1.914062 11.523438 -1.578125 10.828125 -1.453125 C 10.140625 -1.335938 9.484375 -1.335938 8.859375 -1.453125 C 8.222656 -0.796875 7.503906 -0.335938 6.703125 -0.078125 C 5.910156 0.179688 5.128906 0.253906 4.359375 0.140625 C 3.585938 0.0234375 2.90625 -0.265625 2.3125 -0.734375 C 2 0.484375 1.6875 1.753906 1.375 3.078125 C 1.0625 4.398438 0.734375 5.773438 0.390625 7.203125 C 0.304688 7.359375 0.09375 7.46875 -0.25 7.53125 C -0.601562 7.59375 -0.988281 7.617188 -1.40625 7.609375 C -1.820312 7.597656 -2.1875 7.539062 -2.5 7.4375 C -2.8125 7.332031 -2.96875 7.191406 -2.96875 7.015625 C -2.289062 4.242188 -1.566406 1.394531 -0.796875 -1.53125 C -0.0351562 -4.457031 0.789062 -7.546875 1.6875 -10.796875 C 1.71875 -10.910156 1.882812 -11 2.1875 -11.0625 C 2.5 -11.125 2.847656 -11.140625 3.234375 -11.109375 C 3.628906 -11.085938 3.988281 -11.015625 4.3125 -10.890625 C 4.644531 -10.773438 4.84375 -10.59375 4.90625 -10.34375 C 4.875 -10.207031 4.8125 -10.015625 4.71875 -9.765625 C 4.625 -9.523438 4.550781 -9.335938 4.5 -9.203125 C 5.050781 -9.722656 5.691406 -10.171875 6.421875 -10.546875 C 7.148438 -10.929688 7.921875 -11.09375 8.734375 -11.03125 Z M 6.8125 -8.6875 C 6.445312 -8.71875 6.007812 -8.601562 5.5 -8.34375 C 4.988281 -8.082031 4.515625 -7.742188 4.078125 -7.328125 C 3.859375 -6.535156 3.648438 -5.769531 3.453125 -5.03125 C 3.265625 -4.289062 3.050781 -3.503906 2.8125 -2.671875 C 3.082031 -2.359375 3.414062 -2.132812 3.8125 -2 C 4.21875 -1.875 4.628906 -1.847656 5.046875 -1.921875 C 5.460938 -1.992188 5.804688 -2.160156 6.078125 -2.421875 C 5.867188 -2.679688 5.800781 -2.960938 5.875 -3.265625 C 5.957031 -3.566406 6.109375 -3.8125 6.328125 -4 C 6.546875 -4.195312 6.757812 -4.242188 6.96875 -4.140625 C 7.3125 -4.878906 7.546875 -5.585938 7.671875 -6.265625 C 7.804688 -6.941406 7.804688 -7.503906 7.671875 -7.953125 C 7.546875 -8.398438 7.257812 -8.644531 6.8125 -8.6875 Z M 6.8125 -8.6875 "/></g></g></g><g fill="#a75b24" fill-opacity="1"><g transform="translate(177.866581, 26.3617)"><g><path d="M 5.4375 -17.375 C 6.113281 -17.78125 6.785156 -17.972656 7.453125 -17.953125 C 8.128906 -17.941406 8.734375 -17.738281 9.265625 -17.34375 C 9.796875 -16.957031 10.164062 -16.40625 10.375 -15.6875 C 10.582031 -14.96875 10.554688 -14.097656 10.296875 -13.078125 C 9.898438 -11.515625 9.117188 -10.125 7.953125 -8.90625 C 6.796875 -7.695312 5.304688 -6.78125 3.484375 -6.15625 C 3.203125 -4.894531 3.164062 -3.863281 3.375 -3.0625 C 3.582031 -2.269531 4.113281 -1.847656 4.96875 -1.796875 C 5.757812 -1.742188 6.582031 -2.054688 7.4375 -2.734375 C 8.300781 -3.410156 9.035156 -4.351562 9.640625 -5.5625 C 9.691406 -5.664062 9.804688 -5.679688 9.984375 -5.609375 C 10.160156 -5.546875 10.328125 -5.445312 10.484375 -5.3125 C 10.640625 -5.1875 10.691406 -5.078125 10.640625 -4.984375 C 10.128906 -4.003906 9.566406 -3.09375 8.953125 -2.25 C 8.335938 -1.40625 7.601562 -0.753906 6.75 -0.296875 C 5.90625 0.160156 4.867188 0.328125 3.640625 0.203125 C 2.410156 0.0664062 1.53125 -0.398438 1 -1.203125 C 0.46875 -2.015625 0.210938 -3.066406 0.234375 -4.359375 C 0.253906 -5.660156 0.4375 -7.117188 0.78125 -8.734375 C 1.0625 -9.984375 1.425781 -11.179688 1.875 -12.328125 C 2.320312 -13.472656 2.84375 -14.484375 3.4375 -15.359375 C 4.039062 -16.242188 4.707031 -16.914062 5.4375 -17.375 Z M 7.359375 -15.625 C 7.046875 -15.644531 6.722656 -15.367188 6.390625 -14.796875 C 6.066406 -14.222656 5.726562 -13.503906 5.375 -12.640625 C 5.164062 -12.046875 4.921875 -11.34375 4.640625 -10.53125 C 4.359375 -9.71875 4.113281 -8.9375 3.90625 -8.1875 C 4.5625 -8.582031 5.175781 -9.160156 5.75 -9.921875 C 6.320312 -10.691406 6.765625 -11.445312 7.078125 -12.1875 C 7.335938 -12.800781 7.519531 -13.363281 7.625 -13.875 C 7.738281 -14.394531 7.78125 -14.816406 7.75 -15.140625 C 7.71875 -15.460938 7.585938 -15.625 7.359375 -15.625 Z M 7.359375 -15.625 "/></g></g></g><g fill="#a75b24" fill-opacity="1"><g transform="translate(187.250484, 26.3617)"><g><path d="M 6.546875 -11.03125 C 7.160156 -11.132812 7.84375 -11.15625 8.59375 -11.09375 C 9.34375 -11.03125 10.078125 -10.875 10.796875 -10.625 C 11.515625 -10.375 12.128906 -9.988281 12.640625 -9.46875 C 12.722656 -9.3125 12.679688 -9.085938 12.515625 -8.796875 C 12.347656 -8.515625 12.144531 -8.273438 11.90625 -8.078125 C 11.664062 -7.878906 11.46875 -7.804688 11.3125 -7.859375 C 10.769531 -8.265625 10.15625 -8.5625 9.46875 -8.75 C 8.789062 -8.945312 8.140625 -9.007812 7.515625 -8.9375 C 6.753906 -8.875 6.035156 -8.535156 5.359375 -7.921875 C 4.679688 -7.316406 4.160156 -6.570312 3.796875 -5.6875 C 3.429688 -4.894531 3.226562 -4.160156 3.1875 -3.484375 C 3.144531 -2.804688 3.242188 -2.347656 3.484375 -2.109375 C 3.796875 -1.804688 4.15625 -1.789062 4.5625 -2.0625 C 4.96875 -2.332031 5.382812 -2.78125 5.8125 -3.40625 C 6.238281 -4.03125 6.625 -4.722656 6.96875 -5.484375 C 7.3125 -6.242188 7.585938 -6.960938 7.796875 -7.640625 C 7.953125 -7.796875 8.179688 -7.882812 8.484375 -7.90625 C 8.785156 -7.925781 9.101562 -7.894531 9.4375 -7.8125 C 9.78125 -7.738281 10.070312 -7.628906 10.3125 -7.484375 C 10.5625 -7.347656 10.710938 -7.210938 10.765625 -7.078125 C 10.640625 -6.660156 10.492188 -6.160156 10.328125 -5.578125 C 10.171875 -4.992188 10.03125 -4.414062 9.90625 -3.84375 C 9.613281 -2.539062 9.757812 -1.890625 10.34375 -1.890625 C 10.644531 -1.910156 11.007812 -2.082031 11.4375 -2.40625 C 11.875 -2.726562 12.304688 -3.160156 12.734375 -3.703125 C 13.171875 -4.253906 13.535156 -4.863281 13.828125 -5.53125 C 13.878906 -5.65625 14 -5.6875 14.1875 -5.625 C 14.382812 -5.5625 14.554688 -5.460938 14.703125 -5.328125 C 14.847656 -5.203125 14.894531 -5.085938 14.84375 -4.984375 C 14.363281 -4.035156 13.8125 -3.171875 13.1875 -2.390625 C 12.5625 -1.609375 11.878906 -0.988281 11.140625 -0.53125 C 10.398438 -0.0703125 9.609375 0.15625 8.765625 0.15625 C 8.117188 0.15625 7.644531 -0.125 7.34375 -0.6875 C 7.039062 -1.25 6.957031 -2.007812 7.09375 -2.96875 C 6.800781 -2.457031 6.46875 -1.957031 6.09375 -1.46875 C 5.71875 -0.988281 5.269531 -0.59375 4.75 -0.28125 C 4.238281 0.03125 3.609375 0.191406 2.859375 0.203125 C 2.265625 0.222656 1.707031 0.0976562 1.1875 -0.171875 C 0.675781 -0.441406 0.28125 -0.882812 0 -1.5 C -0.28125 -2.125 -0.34375 -2.957031 -0.1875 -4 C -0.0390625 -4.9375 0.25 -5.804688 0.6875 -6.609375 C 1.132812 -7.421875 1.675781 -8.132812 2.3125 -8.75 C 2.957031 -9.363281 3.644531 -9.863281 4.375 -10.25 C 5.113281 -10.644531 5.835938 -10.90625 6.546875 -11.03125 Z M 6.546875 -11.03125 "/></g></g></g><g fill="#a75b24" fill-opacity="1"><g transform="translate(200.845453, 26.3617)"><g><path d="M 3.6875 0.234375 C 2.738281 0.234375 2 0.0507812 1.46875 -0.3125 C 0.9375 -0.675781 0.566406 -1.171875 0.359375 -1.796875 C 0.148438 -2.429688 0.0664062 -3.164062 0.109375 -4 C 0.160156 -4.832031 0.28125 -5.722656 0.46875 -6.671875 C 0.65625 -7.617188 0.875 -8.578125 1.125 -9.546875 L 0.390625 -9.546875 C 0.210938 -9.648438 0.125 -9.847656 0.125 -10.140625 C 0.125 -10.429688 0.179688 -10.71875 0.296875 -11 C 0.410156 -11.289062 0.546875 -11.453125 0.703125 -11.484375 L 1.65625 -11.484375 C 1.882812 -12.210938 2.117188 -12.945312 2.359375 -13.6875 C 2.609375 -14.4375 2.835938 -15.132812 3.046875 -15.78125 C 3.265625 -16.4375 3.445312 -16.96875 3.59375 -17.375 C 3.695312 -17.507812 3.921875 -17.597656 4.265625 -17.640625 C 4.609375 -17.679688 4.976562 -17.675781 5.375 -17.625 C 5.78125 -17.570312 6.132812 -17.476562 6.4375 -17.34375 C 6.738281 -17.207031 6.90625 -17.035156 6.9375 -16.828125 C 6.664062 -15.992188 6.390625 -15.140625 6.109375 -14.265625 C 5.828125 -13.390625 5.539062 -12.460938 5.25 -11.484375 L 7.203125 -11.484375 C 7.390625 -11.347656 7.484375 -11.132812 7.484375 -10.84375 C 7.484375 -10.5625 7.4375 -10.289062 7.34375 -10.03125 C 7.25 -9.769531 7.132812 -9.609375 7 -9.546875 L 4.734375 -9.546875 C 4.546875 -8.878906 4.359375 -8.226562 4.171875 -7.59375 C 3.992188 -6.96875 3.84375 -6.378906 3.71875 -5.828125 C 3.4375 -4.679688 3.316406 -3.726562 3.359375 -2.96875 C 3.410156 -2.21875 3.726562 -1.828125 4.3125 -1.796875 C 4.914062 -1.773438 5.617188 -2.054688 6.421875 -2.640625 C 7.234375 -3.234375 7.960938 -4.207031 8.609375 -5.5625 C 8.660156 -5.6875 8.773438 -5.710938 8.953125 -5.640625 C 9.140625 -5.566406 9.304688 -5.460938 9.453125 -5.328125 C 9.597656 -5.191406 9.644531 -5.070312 9.59375 -4.96875 C 8.882812 -3.382812 8.050781 -2.125 7.09375 -1.1875 C 6.144531 -0.257812 5.007812 0.210938 3.6875 0.234375 Z M 3.6875 0.234375 "/></g></g></g><g fill="#a75b24" fill-opacity="1"><g transform="translate(209.163586, 26.3617)"><g><path d="M 6.921875 -11.03125 C 7.953125 -11.007812 8.75 -10.765625 9.3125 -10.296875 C 9.882812 -9.828125 10.222656 -9.253906 10.328125 -8.578125 C 10.441406 -7.898438 10.328125 -7.234375 9.984375 -6.578125 C 9.515625 -5.617188 8.710938 -4.929688 7.578125 -4.515625 C 6.441406 -4.109375 5.128906 -4.050781 3.640625 -4.34375 C 3.609375 -2.757812 4.546875 -1.914062 6.453125 -1.8125 C 7.003906 -1.78125 7.625 -1.863281 8.3125 -2.0625 C 9.007812 -2.257812 9.695312 -2.632812 10.375 -3.1875 C 11.050781 -3.75 11.628906 -4.539062 12.109375 -5.5625 C 12.160156 -5.6875 12.273438 -5.710938 12.453125 -5.640625 C 12.640625 -5.566406 12.8125 -5.460938 12.96875 -5.328125 C 13.125 -5.203125 13.175781 -5.085938 13.125 -4.984375 C 12.4375 -3.566406 11.671875 -2.476562 10.828125 -1.71875 C 9.984375 -0.957031 9.101562 -0.429688 8.1875 -0.140625 C 7.269531 0.140625 6.351562 0.273438 5.4375 0.265625 C 4.050781 0.222656 2.945312 -0.0625 2.125 -0.59375 C 1.300781 -1.132812 0.734375 -1.820312 0.421875 -2.65625 C 0.117188 -3.5 0.046875 -4.398438 0.203125 -5.359375 C 0.398438 -6.515625 0.8125 -7.523438 1.4375 -8.390625 C 2.070312 -9.265625 2.863281 -9.929688 3.8125 -10.390625 C 4.769531 -10.847656 5.804688 -11.0625 6.921875 -11.03125 Z M 6.578125 -8.921875 C 6.210938 -8.953125 5.84375 -8.832031 5.46875 -8.5625 C 5.09375 -8.289062 4.757812 -7.910156 4.46875 -7.421875 C 4.175781 -6.941406 3.953125 -6.398438 3.796875 -5.796875 C 4.660156 -5.710938 5.375 -5.84375 5.9375 -6.1875 C 6.5 -6.53125 6.878906 -6.957031 7.078125 -7.46875 C 7.210938 -7.8125 7.253906 -8.132812 7.203125 -8.4375 C 7.148438 -8.738281 6.941406 -8.898438 6.578125 -8.921875 Z M 6.578125 -8.921875 "/></g></g></g><g fill="#a75b24" fill-opacity="1"><g transform="translate(221.022238, 26.3617)"><g/></g></g></svg>